<svg data-v-423bf9ae="" xmlns="http://www.w3.org/2000/svg" viewBox="0 0 104.55090931708445 60" class="font"><!----><!----><!----><g data-v-423bf9ae="" id="69d4c90d-b425-489e-a0d7-ad3b80408497" fill="#000000" transform="matrix(5.988024248455585,0,0,5.988024248455585,-8.802395238655748,-21.79640865412849)"><path d="M2.87 12.33L8.58 12.33L8.58 13.55L1.47 13.55L1.47 3.75L8.39 3.75L8.39 4.97L2.87 4.97L2.87 7.98L7.78 7.98L7.78 9.17L2.87 9.17L2.87 12.33ZM15.19 13.66Q13.72 13.66 12.54 13.01Q11.35 12.36 10.68 11.22Q10.01 10.08 10.01 8.65L10.01 8.65Q10.01 7.22 10.68 6.08Q11.35 4.94 12.54 4.29Q13.73 3.64 15.20 3.64L15.20 3.64Q16.35 3.64 17.30 4.02Q18.26 4.41 18.93 5.17L18.93 5.17L18.02 6.05Q16.91 4.89 15.26 4.89L15.26 4.89Q14.17 4.89 13.29 5.38Q12.40 5.87 11.91 6.73Q11.41 7.59 11.41 8.65L11.41 8.65Q11.41 9.72 11.91 10.58Q12.40 11.44 13.29 11.93Q14.17 12.42 15.26 12.42L15.26 12.42Q16.90 12.42 18.02 11.24L18.02 11.24L18.93 12.12Q18.26 12.88 17.30 13.27Q16.34 13.66 15.19 13.66L15.19 13.66Z"></path></g><!----><!----></svg>