<svg data-v-fde0c5aa="" xmlns="http://www.w3.org/2000/svg" viewBox="0 0 300 300" class="font"><!----><defs data-v-fde0c5aa=""><linearGradient data-v-fde0c5aa="" gradientTransform="rotate(25)" id="7d8fb95c-9ecb-421c-a932-4db79bdd2b96" x1="0%" y1="0%" x2="100%" y2="0%"><stop data-v-fde0c5aa="" offset="0%" stop-color="transparent" stop-opacity="1"></stop><stop data-v-fde0c5aa="" offset="100%" stop-color="#FFFFFF" stop-opacity="1"></stop></linearGradient></defs><rect data-v-fde0c5aa="" fill="url(#7d8fb95c-9ecb-421c-a932-4db79bdd2b96)" x="0" y="0" width="300px" height="300px" class="logo-background-square"></rect><defs data-v-fde0c5aa=""><!----></defs><g data-v-fde0c5aa="" id="3ae28933-ab7f-4a4f-bcde-47d6d59f702a" fill="#000000" transform="matrix(2.638206039216131,0,0,2.638206039216131,38.33793020787378,125.80765104810627)"><path d="M3.88 12.71Q3.08 12.71 2.39 12.43Q1.70 12.15 1.23 11.58Q0.76 11.01 0.63 10.20L0.63 10.20L1.47 9.93Q1.54 10.57 1.88 11.01Q2.23 11.46 2.75 11.68Q3.27 11.89 3.88 11.89L3.88 11.89Q4.81 11.89 5.37 11.43Q5.92 10.97 5.92 10.04L5.92 10.04Q5.92 9.45 5.62 9.03Q5.32 8.62 4.87 8.36Q4.43 8.09 3.68 7.76L3.68 7.76Q2.88 7.40 2.41 7.12Q1.93 6.83 1.60 6.36Q1.27 5.89 1.27 5.20L1.27 5.20Q1.27 4.50 1.61 3.96Q1.95 3.41 2.53 3.11Q3.10 2.80 3.79 2.80L3.79 2.80Q4.65 2.80 5.31 3.17Q5.97 3.53 6.41 4.26L6.41 4.26L5.76 4.72Q5.46 4.16 4.94 3.87Q4.42 3.59 3.79 3.59L3.79 3.59Q3.36 3.59 2.99 3.77Q2.61 3.96 2.38 4.30Q2.15 4.64 2.15 5.10L2.15 5.10Q2.15 5.58 2.42 5.94Q2.69 6.29 3.10 6.53Q3.50 6.77 4.20 7.10L4.20 7.10Q5.04 7.48 5.56 7.80Q6.08 8.13 6.44 8.66Q6.80 9.19 6.80 9.97L6.80 9.97Q6.80 10.79 6.42 11.42Q6.04 12.04 5.38 12.38Q4.72 12.71 3.88 12.71L3.88 12.71ZM11.08 12.69Q10.11 12.69 9.44 12.22Q8.76 11.76 8.43 10.98Q8.09 10.19 8.09 9.23L8.09 9.23Q8.09 8.28 8.43 7.47Q8.76 6.67 9.40 6.18Q10.05 5.69 10.96 5.69L10.96 5.69Q11.99 5.69 12.62 6.16Q13.25 6.64 13.52 7.38Q13.79 8.13 13.79 9.00L13.79 9.00Q13.79 9.24 13.77 9.48L13.77 9.48L8.99 9.48Q8.97 10.15 9.20 10.71Q9.44 11.27 9.92 11.61Q10.39 11.95 11.07 11.95L11.07 11.95Q11.72 11.95 12.19 11.79Q12.66 11.63 13.05 11.22L13.05 11.22L13.64 11.67Q13.08 12.21 12.49 12.45Q11.89 12.69 11.08 12.69L11.08 12.69ZM8.99 8.74L12.98 8.74Q12.98 8.13 12.79 7.60Q12.59 7.07 12.14 6.73Q11.69 6.39 10.96 6.39L10.96 6.39Q10.34 6.39 9.90 6.71Q9.45 7.03 9.23 7.57Q9.01 8.10 8.99 8.74L8.99 8.74ZM15.64 12.61L15.64 5.78L16.51 5.78L16.51 7.01Q16.78 6.38 17.34 6.01Q17.90 5.63 18.57 5.63L18.57 5.63Q19.16 5.63 19.63 5.95L19.63 5.95L19.28 6.71Q18.98 6.45 18.43 6.45L18.43 6.45Q17.49 6.45 16.99 7.14Q16.50 7.83 16.50 9.06L16.50 9.06L16.50 12.61L15.64 12.61ZM22.90 12.69Q21.93 12.69 21.26 12.22Q20.58 11.76 20.25 10.98Q19.91 10.19 19.91 9.23L19.91 9.23Q19.91 8.28 20.24 7.47Q20.58 6.67 21.22 6.18Q21.87 5.69 22.78 5.69L22.78 5.69Q23.81 5.69 24.44 6.16Q25.07 6.64 25.34 7.38Q25.61 8.13 25.61 9.00L25.61 9.00Q25.61 9.24 25.59 9.48L25.59 9.48L20.81 9.48Q20.79 10.15 21.02 10.71Q21.26 11.27 21.73 11.61Q22.21 11.95 22.89 11.95L22.89 11.95Q23.54 11.95 24.01 11.79Q24.48 11.63 24.87 11.22L24.87 11.22L25.46 11.67Q24.90 12.21 24.31 12.45Q23.71 12.69 22.90 12.69L22.90 12.69ZM20.81 8.74L24.80 8.74Q24.80 8.13 24.61 7.60Q24.41 7.07 23.96 6.73Q23.51 6.39 22.78 6.39L22.78 6.39Q22.16 6.39 21.71 6.71Q21.27 7.03 21.05 7.57Q20.83 8.10 20.81 8.74L20.81 8.74ZM27.46 12.61L27.46 5.78L28.31 5.78L28.31 7.06Q28.66 6.41 29.22 6.04Q29.79 5.66 30.57 5.66L30.57 5.66Q31.33 5.66 31.83 6.03Q32.33 6.40 32.57 7.03Q32.81 7.66 32.81 8.45L32.81 8.45L32.81 12.61L31.95 12.61L31.95 8.52Q31.95 7.64 31.58 7.00Q31.21 6.36 30.34 6.36L30.34 6.36Q29.78 6.36 29.32 6.68Q28.85 6.99 28.58 7.61Q28.31 8.22 28.31 9.11L28.31 9.11L28.31 12.61L27.46 12.61ZM34.97 4.20L34.97 2.95L35.98 2.95L35.98 4.20L34.97 4.20ZM35.05 12.61L35.05 5.78L35.90 5.78L35.90 12.61L35.05 12.61ZM40.06 12.74Q39.22 12.74 38.88 12.24Q38.53 11.74 38.53 10.81L38.53 10.81L38.53 6.47L37.44 6.47L37.44 5.78L38.53 5.78L38.53 4.27L39.39 3.38L39.39 5.78L41.13 5.78L41.13 6.47L39.39 6.47L39.39 10.90Q39.39 11.46 39.63 11.76Q39.88 12.06 40.28 12.06L40.28 12.06Q40.56 12.06 40.90 11.91L40.90 11.91L40.90 12.62Q40.79 12.67 40.56 12.70Q40.34 12.74 40.06 12.74L40.06 12.74ZM43.42 15.54L44.56 12.61L41.95 5.78L42.90 5.78L44.97 11.57L46.96 5.78L47.89 5.78L44.30 15.54L43.42 15.54ZM55.86 12.71Q55.07 12.71 54.38 12.43Q53.69 12.15 53.22 11.58Q52.75 11.01 52.62 10.20L52.62 10.20L53.46 9.93Q53.53 10.57 53.87 11.01Q54.22 11.46 54.74 11.68Q55.25 11.89 55.86 11.89L55.86 11.89Q56.80 11.89 57.35 11.43Q57.91 10.97 57.91 10.04L57.91 10.04Q57.91 9.45 57.61 9.03Q57.31 8.62 56.86 8.36Q56.42 8.09 55.67 7.76L55.67 7.76Q54.87 7.40 54.39 7.12Q53.92 6.83 53.59 6.36Q53.26 5.89 53.26 5.20L53.26 5.20Q53.26 4.50 53.60 3.96Q53.94 3.41 54.51 3.11Q55.09 2.80 55.78 2.80L55.78 2.80Q56.64 2.80 57.30 3.17Q57.96 3.53 58.40 4.26L58.40 4.26L57.74 4.72Q57.45 4.16 56.93 3.87Q56.41 3.59 55.78 3.59L55.78 3.59Q55.35 3.59 54.97 3.77Q54.60 3.96 54.37 4.30Q54.14 4.64 54.14 5.10L54.14 5.10Q54.14 5.58 54.41 5.94Q54.68 6.29 55.08 6.53Q55.49 6.77 56.19 7.10L56.19 7.10Q57.03 7.48 57.54 7.80Q58.06 8.13 58.43 8.66Q58.79 9.19 58.79 9.97L58.79 9.97Q58.79 10.79 58.41 11.42Q58.03 12.04 57.37 12.38Q56.70 12.71 55.86 12.71L55.86 12.71ZM62.18 12.74Q61.55 12.74 61.06 12.50Q60.57 12.26 60.30 11.82Q60.03 11.37 60.03 10.76L60.03 10.76Q60.03 8.74 63.10 8.74L63.10 8.74L64.62 8.74Q64.62 7.62 64.21 7Q63.80 6.38 62.86 6.38L62.86 6.38Q61.66 6.38 60.89 7.42L60.89 7.42L60.28 6.94Q61.22 5.63 62.78 5.63L62.78 5.63Q63.62 5.63 64.21 5.97Q64.79 6.32 65.09 6.94Q65.39 7.57 65.39 8.41L65.39 8.41L65.39 12.61L64.65 12.61L64.65 11.20Q64.31 11.97 63.64 12.36Q62.98 12.74 62.18 12.74L62.18 12.74ZM62.27 12.02Q62.99 12.02 63.52 11.62Q64.05 11.23 64.34 10.63Q64.62 10.02 64.62 9.41L64.62 9.41L63.21 9.41Q62.04 9.41 61.48 9.72Q60.92 10.03 60.92 10.77L60.92 10.77Q60.92 11.42 61.29 11.72Q61.67 12.02 62.27 12.02L62.27 12.02ZM68.61 12.74Q68.15 12.74 67.93 12.57Q67.71 12.39 67.65 12.13Q67.59 11.87 67.59 11.46L67.59 11.46L67.59 11.22L67.59 2.95L68.46 2.95L68.46 11.64Q68.46 11.74 68.46 11.76Q68.46 11.78 68.52 11.89Q68.58 12.00 68.74 12.00L68.74 12.00Q69.10 12.00 69.45 11.94L69.45 11.94L69.45 12.61Q69.30 12.66 69.07 12.70Q68.84 12.74 68.61 12.74L68.61 12.74ZM73.65 12.74Q72.73 12.74 72.02 12.26Q71.30 11.78 70.90 10.96Q70.50 10.14 70.50 9.17L70.50 9.17Q70.50 8.20 70.90 7.39Q71.30 6.58 72.02 6.11Q72.73 5.63 73.65 5.63L73.65 5.63Q74.57 5.63 75.29 6.11Q76.02 6.58 76.43 7.40Q76.84 8.21 76.84 9.17L76.84 9.17Q76.84 10.14 76.43 10.96Q76.02 11.78 75.29 12.26Q74.57 12.74 73.65 12.74L73.65 12.74ZM73.66 12.04Q74.42 12.04 74.95 11.64Q75.48 11.23 75.73 10.58Q75.99 9.92 75.99 9.17L75.99 9.17Q75.99 8.43 75.73 7.78Q75.48 7.13 74.96 6.73Q74.44 6.33 73.68 6.33L73.68 6.33Q72.93 6.33 72.40 6.73Q71.87 7.13 71.61 7.78Q71.35 8.43 71.35 9.17L71.35 9.17Q71.35 9.93 71.61 10.58Q71.87 11.24 72.40 11.64Q72.92 12.04 73.66 12.04L73.66 12.04ZM78.67 12.61L78.67 5.78L79.53 5.78L79.53 7.06Q79.87 6.41 80.44 6.04Q81.01 5.66 81.79 5.66L81.79 5.66Q82.54 5.66 83.05 6.03Q83.55 6.40 83.78 7.03Q84.02 7.66 84.02 8.45L84.02 8.45L84.02 12.61L83.17 12.61L83.17 8.52Q83.17 7.64 82.80 7.00Q82.43 6.36 81.56 6.36L81.56 6.36Q80.99 6.36 80.53 6.68Q80.07 6.99 79.80 7.61Q79.53 8.22 79.53 9.11L79.53 9.11L79.53 12.61L78.67 12.61Z"></path></g><!----><!----></svg>